<mxfile host="app.diagrams.net" modified="2023-05-12T15:55:48.160Z" agent="Mozilla/5.0 (Windows NT 10.0; Win64; x64) AppleWebKit/537.36 (KHTML, like Gecko) Chrome/113.0.0.0 Safari/537.36" etag="txnM0DB1ZqHXqkZrQRNL" version="21.2.9" type="device">
  <diagram name="Page-1" id="2cc2dc42-3aac-f2a9-1cec-7a8b7cbee084">
    <mxGraphModel dx="1221" dy="711" grid="1" gridSize="10" guides="1" tooltips="1" connect="1" arrows="1" fold="1" page="1" pageScale="1" pageWidth="1100" pageHeight="850" background="none" math="0" shadow="0">
      <root>
        <mxCell id="0" />
        <mxCell id="1" parent="0" />
        <mxCell id="7026571954dc6520-1" value="" style="strokeWidth=1;shadow=0;dashed=0;align=center;html=1;shape=mxgraph.mockup.containers.browserWindow;rSize=0;strokeColor=#666666;mainText=,;recursiveResize=0;rounded=0;labelBackgroundColor=none;fontFamily=Verdana;fontSize=12" parent="1" vertex="1">
          <mxGeometry x="30" y="20" width="1050" height="820" as="geometry" />
        </mxCell>
        <mxCell id="7026571954dc6520-2" value="Help &amp;amp; Support" style="strokeWidth=1;shadow=0;dashed=0;align=center;html=1;shape=mxgraph.mockup.containers.anchor;fontSize=17;fontColor=#666666;align=left;" parent="7026571954dc6520-1" vertex="1">
          <mxGeometry x="57" y="14" width="110" height="26" as="geometry" />
        </mxCell>
        <mxCell id="7026571954dc6520-3" value="https://www.eduteach.com/" style="strokeWidth=1;shadow=0;dashed=0;align=center;html=1;shape=mxgraph.mockup.containers.anchor;rSize=0;fontSize=17;fontColor=#666666;align=left;" parent="7026571954dc6520-1" vertex="1">
          <mxGeometry x="130" y="60" width="480" height="26" as="geometry" />
        </mxCell>
        <mxCell id="LoF_D8ftlG8vqLDM8Cvz-1" value="&lt;font style=&quot;font-size: 7px;&quot;&gt;Created by MLB_11.01_9&lt;/font&gt;" style="text;html=1;strokeColor=none;fillColor=none;align=center;verticalAlign=middle;whiteSpace=wrap;rounded=0;" parent="1" vertex="1">
          <mxGeometry x="460" y="810" width="181" height="30" as="geometry" />
        </mxCell>
        <mxCell id="LoF_D8ftlG8vqLDM8Cvz-2" value="" style="rounded=1;whiteSpace=wrap;html=1;" parent="1" vertex="1">
          <mxGeometry x="35" y="137" width="1040" height="40" as="geometry" />
        </mxCell>
        <mxCell id="LoF_D8ftlG8vqLDM8Cvz-3" value="" style="verticalLabelPosition=bottom;shadow=0;dashed=0;align=center;html=1;verticalAlign=top;strokeWidth=1;shape=mxgraph.mockup.graphics.simpleIcon;strokeColor=#999999;" parent="1" vertex="1">
          <mxGeometry x="56" y="142" width="50" height="30" as="geometry" />
        </mxCell>
        <mxCell id="796VdTpRs6x_GsB5o8sN-1" value="" style="rounded=0;whiteSpace=wrap;html=1;fillColor=#647687;strokeColor=#314354;fontColor=#ffffff;" parent="1" vertex="1">
          <mxGeometry x="30" y="730" width="1050" height="110" as="geometry" />
        </mxCell>
        <mxCell id="796VdTpRs6x_GsB5o8sN-2" value="" style="dashed=0;outlineConnect=0;html=1;align=center;labelPosition=center;verticalLabelPosition=bottom;verticalAlign=top;shape=mxgraph.weblogos.app_store;fillColor=#000000;strokeColor=none" parent="1" vertex="1">
          <mxGeometry x="771.8" y="781.85" width="61.2" height="20" as="geometry" />
        </mxCell>
        <mxCell id="796VdTpRs6x_GsB5o8sN-3" value="" style="dashed=0;outlineConnect=0;html=1;align=center;labelPosition=center;verticalLabelPosition=bottom;verticalAlign=top;shape=mxgraph.weblogos.app_store_iphone;fillColor=#75797C;strokeColor=none" parent="1" vertex="1">
          <mxGeometry x="842.8" y="781.85" width="61.2" height="20" as="geometry" />
        </mxCell>
        <mxCell id="796VdTpRs6x_GsB5o8sN-4" value="" style="dashed=0;outlineConnect=0;html=1;align=center;labelPosition=center;verticalLabelPosition=bottom;verticalAlign=top;shape=mxgraph.webicons.google_play;fillColor=#000000" parent="1" vertex="1">
          <mxGeometry x="688.8" y="781.25" width="69.4" height="20.6" as="geometry" />
        </mxCell>
        <mxCell id="796VdTpRs6x_GsB5o8sN-5" value="&lt;font style=&quot;font-size: 11px;&quot; color=&quot;#ffffff&quot;&gt;Get us on&lt;/font&gt;" style="text;html=1;strokeColor=none;fillColor=none;align=center;verticalAlign=middle;whiteSpace=wrap;rounded=0;" parent="1" vertex="1">
          <mxGeometry x="660" y="751.25" width="60" height="30" as="geometry" />
        </mxCell>
        <mxCell id="796VdTpRs6x_GsB5o8sN-6" value="&lt;p style=&quot;line-height: 90%;&quot;&gt;&lt;/p&gt;&lt;div style=&quot;text-align: left; line-height: 40%; font-size: 11px;&quot;&gt;&lt;p style=&quot;margin: 0px 0px 10px; color: rgb(189, 195, 199); font-family: &amp;quot;Open Sans&amp;quot;, sans-serif; font-size: 14px; line-height: 40%;&quot; dir=&quot;ltr&quot;&gt;&lt;span style=&quot;background-color: rgb(100, 118, 135);&quot;&gt;DO YOU NEED ANY&lt;/span&gt;&lt;/p&gt;&lt;p style=&quot;margin: 0px 0px 10px; color: rgb(189, 195, 199); font-family: &amp;quot;Open Sans&amp;quot;, sans-serif; font-size: 2rem; line-height: 40%;&quot;&gt;&lt;span style=&quot;font-weight: 700; font-size: 20px; background-color: rgb(100, 118, 135);&quot;&gt;SUPPORT ?&lt;/span&gt;&lt;/p&gt;&lt;/div&gt;&lt;p&gt;&lt;/p&gt;" style="text;html=1;strokeColor=none;fillColor=none;align=center;verticalAlign=middle;whiteSpace=wrap;rounded=0;" parent="1" vertex="1">
          <mxGeometry x="110" y="733.5" width="160" height="71.5" as="geometry" />
        </mxCell>
        <mxCell id="796VdTpRs6x_GsB5o8sN-7" value="" style="shape=image;html=1;verticalAlign=top;verticalLabelPosition=bottom;labelBackgroundColor=#ffffff;imageAspect=0;aspect=fixed;image=https://cdn1.iconfinder.com/data/icons/logos-brands-1/24/logo_brand_brands_logos_microsoft_store_windows-128.png" parent="1" vertex="1">
          <mxGeometry x="911" y="774.25" width="30" height="30" as="geometry" />
        </mxCell>
        <mxCell id="796VdTpRs6x_GsB5o8sN-8" value="" style="sketch=0;pointerEvents=1;shadow=0;dashed=0;html=1;strokeColor=none;fillColor=#505050;labelPosition=center;verticalLabelPosition=bottom;verticalAlign=top;outlineConnect=0;align=center;shape=mxgraph.office.concepts.calendar;" parent="1" vertex="1">
          <mxGeometry x="978" y="738" width="89" height="72" as="geometry" />
        </mxCell>
        <mxCell id="796VdTpRs6x_GsB5o8sN-9" value="&lt;p style=&quot;line-height: 90%;&quot;&gt;Visit Support&lt;br&gt;&lt;u&gt;support.eduteach.com&lt;/u&gt;&lt;/p&gt;" style="fillColor=none;strokeColor=none;html=1;fontColor=#0057D8;align=left;fontSize=12;sketch=0;" parent="1" vertex="1">
          <mxGeometry x="144" y="784.85" width="125" height="33" as="geometry" />
        </mxCell>
        <mxCell id="796VdTpRs6x_GsB5o8sN-10" value="" style="html=1;shadow=0;dashed=0;shape=mxgraph.atlassian.checkbox;fillColor=#008465;strokeColor=none;html=1;sketch=0;" parent="1" vertex="1">
          <mxGeometry x="126" y="794.85" width="14" height="14" as="geometry" />
        </mxCell>
        <mxCell id="796VdTpRs6x_GsB5o8sN-11" value="" style="sketch=0;pointerEvents=1;shadow=0;dashed=0;html=1;strokeColor=none;fillColor=#505050;labelPosition=center;verticalLabelPosition=bottom;verticalAlign=top;outlineConnect=0;align=center;shape=mxgraph.office.users.call_center_agent;" parent="1" vertex="1">
          <mxGeometry x="50" y="738.37" width="60" height="71.75" as="geometry" />
        </mxCell>
        <mxCell id="796VdTpRs6x_GsB5o8sN-12" value="" style="shape=mxgraph.signs.tech.telephone_3;html=1;pointerEvents=1;fillColor=#000000;strokeColor=none;verticalLabelPosition=bottom;verticalAlign=top;align=center;" parent="1" vertex="1">
          <mxGeometry x="277" y="755.25" width="29.31" height="40" as="geometry" />
        </mxCell>
        <mxCell id="796VdTpRs6x_GsB5o8sN-13" value="&lt;b&gt;&lt;font style=&quot;font-size: 16px;&quot;&gt;+94 71 234 5678&amp;nbsp;&lt;/font&gt;&lt;/b&gt;" style="text;html=1;strokeColor=none;fillColor=none;align=center;verticalAlign=middle;whiteSpace=wrap;rounded=0;" parent="1" vertex="1">
          <mxGeometry x="287" y="757.37" width="170" height="30" as="geometry" />
        </mxCell>
        <mxCell id="796VdTpRs6x_GsB5o8sN-14" value="" style="rounded=0;whiteSpace=wrap;html=1;fillColor=#000000;fontColor=#ffffff;strokeColor=#432D57;" parent="1" vertex="1">
          <mxGeometry x="30" y="814" width="1050" height="26" as="geometry" />
        </mxCell>
        <mxCell id="796VdTpRs6x_GsB5o8sN-15" value="&lt;font color=&quot;#ffffff&quot; style=&quot;font-size: 7px;&quot;&gt;Created by MLB_11.01_9&lt;/font&gt;" style="text;html=1;strokeColor=none;fillColor=none;align=center;verticalAlign=middle;whiteSpace=wrap;rounded=0;" parent="1" vertex="1">
          <mxGeometry x="460" y="810" width="181" height="30" as="geometry" />
        </mxCell>
        <mxCell id="796VdTpRs6x_GsB5o8sN-16" value="" style="shape=image;html=1;verticalAlign=top;verticalLabelPosition=bottom;labelBackgroundColor=#ffffff;imageAspect=0;aspect=fixed;image=https://cdn2.iconfinder.com/data/icons/social-media-2421/512/Telegram-128.png;imageBackground=default;" parent="1" vertex="1">
          <mxGeometry x="1021" y="817" width="20" height="20" as="geometry" />
        </mxCell>
        <mxCell id="796VdTpRs6x_GsB5o8sN-17" value="" style="shape=image;html=1;verticalAlign=top;verticalLabelPosition=bottom;labelBackgroundColor=#ffffff;imageAspect=0;aspect=fixed;image=https://cdn3.iconfinder.com/data/icons/picons-social/57/46-facebook-128.png;imageBackground=default;" parent="1" vertex="1">
          <mxGeometry x="990" y="817.85" width="20" height="20" as="geometry" />
        </mxCell>
        <mxCell id="796VdTpRs6x_GsB5o8sN-18" value="" style="shape=image;html=1;verticalAlign=top;verticalLabelPosition=bottom;labelBackgroundColor=#ffffff;imageAspect=0;aspect=fixed;image=https://cdn1.iconfinder.com/data/icons/social-media-circle-7/512/Circled_Twitter_svg-128.png;imageBackground=default;" parent="1" vertex="1">
          <mxGeometry x="959" y="817.85" width="20" height="20" as="geometry" />
        </mxCell>
        <mxCell id="796VdTpRs6x_GsB5o8sN-19" value="" style="shape=image;html=1;verticalAlign=top;verticalLabelPosition=bottom;labelBackgroundColor=#ffffff;imageAspect=0;aspect=fixed;image=https://cdn4.iconfinder.com/data/icons/ionicons/512/icon-social-github-128.png;imageBackground=default;" parent="1" vertex="1">
          <mxGeometry x="1051" y="817.85" width="20" height="20" as="geometry" />
        </mxCell>
        <mxCell id="796VdTpRs6x_GsB5o8sN-20" value="" style="shape=image;html=1;verticalAlign=top;verticalLabelPosition=bottom;labelBackgroundColor=#ffffff;imageAspect=0;aspect=fixed;image=https://cdn0.iconfinder.com/data/icons/eon-social-media-contact-info-2/32/in_linkedin_portfolio_social_media-128.png;imageBackground=default;" parent="1" vertex="1">
          <mxGeometry x="930" y="818" width="20" height="20" as="geometry" />
        </mxCell>
        <mxCell id="796VdTpRs6x_GsB5o8sN-21" value="" style="shape=image;html=1;verticalAlign=top;verticalLabelPosition=bottom;labelBackgroundColor=#ffffff;imageAspect=0;aspect=fixed;image=https://cdn0.iconfinder.com/data/icons/social-media-and-logos-12/32/Google_Google-128.png;imageBackground=default;" parent="1" vertex="1">
          <mxGeometry x="899" y="818" width="20" height="20" as="geometry" />
        </mxCell>
        <mxCell id="796VdTpRs6x_GsB5o8sN-22" value="&lt;font color=&quot;#ffffff&quot;&gt;https://www.eduteach.com&lt;/font&gt;" style="text;html=1;strokeColor=none;fillColor=none;align=center;verticalAlign=middle;whiteSpace=wrap;rounded=0;" parent="1" vertex="1">
          <mxGeometry x="40" y="812" width="170" height="30" as="geometry" />
        </mxCell>
        <mxCell id="796VdTpRs6x_GsB5o8sN-23" value="" style="shape=mxgraph.signs.tech.mail;html=1;pointerEvents=1;fillColor=#647687;strokeColor=#314354;verticalLabelPosition=bottom;verticalAlign=top;align=center;fontColor=#ffffff;" parent="1" vertex="1">
          <mxGeometry x="210" y="818" width="18" height="17" as="geometry" />
        </mxCell>
        <mxCell id="796VdTpRs6x_GsB5o8sN-24" value="&lt;font color=&quot;#ffffff&quot;&gt;info@eduteach.lk&lt;/font&gt;" style="text;html=1;strokeColor=none;fillColor=none;align=center;verticalAlign=middle;whiteSpace=wrap;rounded=0;" parent="1" vertex="1">
          <mxGeometry x="196" y="814" width="170" height="30" as="geometry" />
        </mxCell>
        <mxCell id="796VdTpRs6x_GsB5o8sN-25" value="" style="html=1;dashed=0;aspect=fixed;verticalLabelPosition=bottom;verticalAlign=top;align=center;shape=mxgraph.gmdl.bookmark;strokeColor=none;fillColor=#737373;shadow=0;sketch=0;" parent="1" vertex="1">
          <mxGeometry x="38" y="818" width="9" height="15" as="geometry" />
        </mxCell>
        <mxCell id="1WD8-NuFLle36JU-WN7T-1" value="&lt;font size=&quot;1&quot; face=&quot;Comic Sans MS&quot; style=&quot;&quot;&gt;&lt;span style=&quot;font-size: 11px;&quot;&gt;About Us&amp;nbsp; &amp;nbsp; &amp;nbsp; &amp;nbsp;Help &amp;amp; Support&lt;/span&gt;&lt;/font&gt;" style="text;html=1;strokeColor=none;fillColor=none;align=right;verticalAlign=middle;whiteSpace=wrap;rounded=0;" parent="1" vertex="1">
          <mxGeometry x="792" y="142" width="270" height="30" as="geometry" />
        </mxCell>
        <mxCell id="1WD8-NuFLle36JU-WN7T-4" value="" style="rounded=0;whiteSpace=wrap;html=1;" parent="1" vertex="1">
          <mxGeometry x="40" y="190" width="1030" height="530" as="geometry" />
        </mxCell>
        <mxCell id="1WD8-NuFLle36JU-WN7T-5" value="&lt;b&gt;&lt;font style=&quot;font-size: 18px;&quot;&gt;&amp;nbsp; &amp;nbsp; &amp;nbsp; &amp;nbsp;Help &amp;amp; Support&lt;/font&gt;&lt;/b&gt;" style="rounded=0;whiteSpace=wrap;html=1;" parent="1" vertex="1">
          <mxGeometry x="32" y="201" width="198" height="50" as="geometry" />
        </mxCell>
        <mxCell id="1WD8-NuFLle36JU-WN7T-7" value="" style="sketch=0;pointerEvents=1;shadow=0;dashed=0;html=1;strokeColor=none;fillColor=#505050;labelPosition=center;verticalLabelPosition=bottom;verticalAlign=top;outlineConnect=0;align=center;shape=mxgraph.office.concepts.help;" parent="1" vertex="1">
          <mxGeometry x="38" y="207" width="38" height="38" as="geometry" />
        </mxCell>
        <mxCell id="1WD8-NuFLle36JU-WN7T-8" value="&lt;p style=&quot;line-height: 90%;&quot;&gt;&lt;/p&gt;&lt;div style=&quot;text-align: left; line-height: 40%; font-size: 11px;&quot;&gt;&lt;p style=&quot;margin: 0px 0px 10px; color: rgb(189, 195, 199); font-family: &amp;quot;Open Sans&amp;quot;, sans-serif; font-size: 14px; line-height: 40%;&quot; dir=&quot;ltr&quot;&gt;&lt;span style=&quot;&quot;&gt;DO YOU NEED ANY&lt;/span&gt;&lt;/p&gt;&lt;p style=&quot;margin: 0px 0px 10px; color: rgb(189, 195, 199); font-family: &amp;quot;Open Sans&amp;quot;, sans-serif; font-size: 2rem; line-height: 40%;&quot;&gt;&lt;span style=&quot;font-weight: 700; font-size: 20px;&quot;&gt;SUPPORT ?&lt;/span&gt;&lt;/p&gt;&lt;/div&gt;&lt;p&gt;&lt;/p&gt;" style="text;html=1;strokeColor=none;fillColor=none;align=center;verticalAlign=middle;whiteSpace=wrap;rounded=0;labelBackgroundColor=default;" parent="1" vertex="1">
          <mxGeometry x="902" y="201" width="160" height="80" as="geometry" />
        </mxCell>
        <mxCell id="1WD8-NuFLle36JU-WN7T-11" value="" style="sketch=0;pointerEvents=1;shadow=0;dashed=0;html=1;strokeColor=none;fillColor=#505050;labelPosition=center;verticalLabelPosition=bottom;verticalAlign=top;outlineConnect=0;align=center;shape=mxgraph.office.users.call_center_agent;" parent="1" vertex="1">
          <mxGeometry x="842" y="205.87" width="60" height="71.75" as="geometry" />
        </mxCell>
        <mxCell id="1WD8-NuFLle36JU-WN7T-12" value="Lorem ipsum dolor sit amet, consectetur adipisicing elit, sed do eiusmod tempor incididunt ut labore et dolore magna aliqua. Ut enim ad minim veniam, quis nostrud exercitation ullamco laboris nisi ut aliquip ex ea commodo consequat. Duis aute irure dolor in reprehenderit in voluptate velit esse cillum dolore eu fugiat nulla pariatur. Excepteur sint occaecat cupidatat non proident, sunt in culpa qui officia deserunt mollit anim id est laborum.&#xa;Sed ut perspiciatis unde omnis iste natus error sit voluptatem accusantium doloremque laudantium, totam rem aperiam, eaque ipsa quae ab illo inventore veritatis et quasi architecto beatae vitae dicta sunt explicabo. Nemo enim ipsam voluptatem quia voluptas sit aspernatur aut odit aut fugit, sed quia consequuntur magni dolores eos qui ratione voluptatem sequi nesciunt. Neque porro quisquam est, qui dolorem ipsum quia dolor sit amet, consectetur, adipisci velit, sed quia non numquam eius modi tempora incidunt ut labore et dolore magnam aliquam quaerat voluptatem. Ut enim ad minima veniam, quis nostrum exercitationem ullam corporis suscipit laboriosam, nisi ut aliquid ex ea commodi consequatur? Quis autem vel eum iure reprehenderit qui in ea voluptate velit esse quam nihil molestiae consequatur, vel illum qui dolorem eum fugiat quo voluptas nulla pariatur?" style="text;spacingTop=-5;whiteSpace=wrap;html=1;align=left;fontSize=12;fontFamily=Helvetica;fillColor=none;strokeColor=none;" parent="1" vertex="1">
          <mxGeometry x="58" y="503" width="752" height="182.38" as="geometry" />
        </mxCell>
        <mxCell id="1WD8-NuFLle36JU-WN7T-22" value="" style="rounded=0;whiteSpace=wrap;html=1;" parent="1" vertex="1">
          <mxGeometry x="457" y="218" width="343" height="247" as="geometry" />
        </mxCell>
        <mxCell id="1WD8-NuFLle36JU-WN7T-13" value="&lt;font size=&quot;1&quot; style=&quot;&quot;&gt;&lt;b style=&quot;font-size: 17px;&quot;&gt;How can we help?&lt;/b&gt;&lt;/font&gt;" style="text;html=1;strokeColor=none;fillColor=none;align=center;verticalAlign=middle;whiteSpace=wrap;rounded=0;" parent="1" vertex="1">
          <mxGeometry x="50" y="259" width="170" height="30" as="geometry" />
        </mxCell>
        <mxCell id="1WD8-NuFLle36JU-WN7T-14" value="&lt;ul style=&quot;line-height: 190%;&quot;&gt;&lt;li style=&quot;&quot;&gt;&lt;h1 style=&quot;border-color: var(--border-color);&quot;&gt;&lt;font style=&quot;font-size: 20px;&quot;&gt;Heading&lt;/font&gt;&lt;/h1&gt;&lt;font style=&quot;font-size: 11px;&quot;&gt;Lorem ipsum dolor sit amet, consectetur adipisicing elit, sed do eiusmod tempor incididunt ut labore et dolore magna aliqua.&lt;/font&gt;&lt;/li&gt;&lt;li style=&quot;&quot;&gt;&lt;h1 style=&quot;border-color: var(--border-color);&quot;&gt;&lt;font style=&quot;font-size: 20px;&quot;&gt;Heading&lt;/font&gt;&lt;/h1&gt;&lt;p style=&quot;border-color: var(--border-color);&quot;&gt;&lt;font style=&quot;font-size: 11px;&quot;&gt;Lorem ipsum dolor sit amet, consectetur adipisicing elit, sed do eiusmod tempor incididunt ut labore et dolore magna aliqua.&lt;/font&gt;&lt;/p&gt;&lt;/li&gt;&lt;/ul&gt;" style="text;strokeColor=none;fillColor=none;html=1;whiteSpace=wrap;verticalAlign=middle;overflow=hidden;" parent="1" vertex="1">
          <mxGeometry x="35" y="277.62" width="395" height="210" as="geometry" />
        </mxCell>
        <mxCell id="1WD8-NuFLle36JU-WN7T-15" value="&amp;nbsp; *Name" style="rounded=0;whiteSpace=wrap;html=1;align=left;" parent="1" vertex="1">
          <mxGeometry x="464" y="248" width="240" height="30" as="geometry" />
        </mxCell>
        <mxCell id="1WD8-NuFLle36JU-WN7T-17" value="&amp;nbsp; *E-mail" style="rounded=0;whiteSpace=wrap;html=1;align=left;" parent="1" vertex="1">
          <mxGeometry x="462.5" y="289" width="314.5" height="30" as="geometry" />
        </mxCell>
        <mxCell id="1WD8-NuFLle36JU-WN7T-18" value="&lt;br&gt;&lt;br&gt;&lt;br&gt;&amp;nbsp; &amp;nbsp;*Message" style="rounded=0;whiteSpace=wrap;html=1;align=left;spacingTop=-80;" parent="1" vertex="1">
          <mxGeometry x="462.5" y="330" width="324.5" height="69" as="geometry" />
        </mxCell>
        <mxCell id="1WD8-NuFLle36JU-WN7T-19" value="&lt;font style=&quot;font-size: 14px;&quot;&gt;&lt;b&gt;Submit&lt;/b&gt;&lt;/font&gt;" style="rounded=1;html=1;shadow=0;dashed=0;whiteSpace=wrap;fontSize=10;fillColor=#666666;align=center;strokeColor=#4D4D4D;fontColor=#ffffff;" parent="1" vertex="1">
          <mxGeometry x="693.5" y="410" width="98.5" height="40" as="geometry" />
        </mxCell>
        <mxCell id="1WD8-NuFLle36JU-WN7T-20" value="Please fill in below to report issue or contact agent" style="text;html=1;strokeColor=none;fillColor=none;align=center;verticalAlign=middle;whiteSpace=wrap;rounded=0;" parent="1" vertex="1">
          <mxGeometry x="425" y="218" width="340" height="30" as="geometry" />
        </mxCell>
        <mxCell id="1WD8-NuFLle36JU-WN7T-23" value="&lt;div style=&quot;overflow-wrap: break-word; box-sizing: border-box; outline: 0px; margin-top: var(--sail-spacing-8); margin-left: var(--sail-spacing-8); color: rgb(60, 66, 87); font-family: -apple-system, BlinkMacSystemFont, &amp;quot;Segoe UI&amp;quot;, Roboto, &amp;quot;Helvetica Neue&amp;quot;, Ubuntu, sans-serif; background-color: rgb(247, 250, 252); pointer-events: auto; font-size: 15px;&quot; class=&quot;Box-root Box-hideIfEmpty Margin-top--8 Margin-left--8&quot;&gt;&lt;b style=&quot;&quot;&gt;&lt;font style=&quot;font-size: 15px;&quot;&gt;Popular topics&lt;/font&gt;&lt;/b&gt;&lt;/div&gt;&lt;blockquote style=&quot;margin: 0px 0px 0px 40px; border: none; padding: 0px; font-size: 15px; line-height: 160%;&quot;&gt;&lt;div style=&quot;overflow-wrap: break-word; box-sizing: border-box; outline: 0px; margin-top: var(--sail-spacing-8); margin-left: var(--sail-spacing-8); font-family: -apple-system, BlinkMacSystemFont, &amp;quot;Segoe UI&amp;quot;, Roboto, &amp;quot;Helvetica Neue&amp;quot;, Ubuntu, sans-serif; background-color: rgb(247, 250, 252); pointer-events: auto; line-height: 160%;&quot; class=&quot;Box-root Box-hideIfEmpty Margin-top--8 Margin-left--8&quot;&gt;&lt;font color=&quot;#0000ff&quot;&gt;Online Trainer&lt;/font&gt;&lt;/div&gt;&lt;div style=&quot;overflow-wrap: break-word; box-sizing: border-box; outline: 0px; margin-top: var(--sail-spacing-8); margin-left: var(--sail-spacing-8); font-family: -apple-system, BlinkMacSystemFont, &amp;quot;Segoe UI&amp;quot;, Roboto, &amp;quot;Helvetica Neue&amp;quot;, Ubuntu, sans-serif; background-color: rgb(247, 250, 252); pointer-events: auto; line-height: 160%;&quot; class=&quot;Box-root Box-hideIfEmpty Margin-top--8 Margin-left--8&quot;&gt;&lt;a style=&quot;overflow-wrap: break-word; box-sizing: border-box; background-color: transparent; font-weight: var(--sail-font-weight-link); text-decoration-line: none; outline: 0px;&quot; data-testid=&quot;sidebox-topic-link&quot; title=&quot;Account&quot; href=&quot;https://support.stripe.com/topics/account&quot; class=&quot;Link&quot;&gt;&lt;font color=&quot;#0000ff&quot;&gt;Account&lt;/font&gt;&lt;/a&gt;&lt;/div&gt;&lt;div style=&quot;overflow-wrap: break-word; box-sizing: border-box; outline: 0px; margin-top: var(--sail-spacing-8); margin-left: var(--sail-spacing-8); font-family: -apple-system, BlinkMacSystemFont, &amp;quot;Segoe UI&amp;quot;, Roboto, &amp;quot;Helvetica Neue&amp;quot;, Ubuntu, sans-serif; background-color: rgb(247, 250, 252); pointer-events: auto; line-height: 160%;&quot; class=&quot;Box-root Box-hideIfEmpty Margin-top--8 Margin-left--8&quot;&gt;&lt;font color=&quot;#0000ff&quot;&gt;Courses&lt;/font&gt;&lt;/div&gt;&lt;div style=&quot;overflow-wrap: break-word; box-sizing: border-box; outline: 0px; margin-top: var(--sail-spacing-8); margin-left: var(--sail-spacing-8); font-family: -apple-system, BlinkMacSystemFont, &amp;quot;Segoe UI&amp;quot;, Roboto, &amp;quot;Helvetica Neue&amp;quot;, Ubuntu, sans-serif; background-color: rgb(247, 250, 252); pointer-events: auto; line-height: 160%;&quot; class=&quot;Box-root Box-hideIfEmpty Margin-top--8 Margin-left--8&quot;&gt;&lt;font color=&quot;#0000ff&quot;&gt;&lt;a style=&quot;font-weight: var(--sail-font-weight-link); overflow-wrap: break-word; box-sizing: border-box; background-color: transparent; text-decoration-line: none; outline: 0px;&quot; data-testid=&quot;sidebox-topic-link&quot; title=&quot;Connect&quot; href=&quot;https://support.stripe.com/topics/connect&quot; class=&quot;Link&quot;&gt;Connect&lt;/a&gt;ions&lt;br&gt;&lt;/font&gt;&lt;/div&gt;&lt;div style=&quot;overflow-wrap: break-word; box-sizing: border-box; outline: 0px; margin-top: var(--sail-spacing-8); margin-left: var(--sail-spacing-8); font-family: -apple-system, BlinkMacSystemFont, &amp;quot;Segoe UI&amp;quot;, Roboto, &amp;quot;Helvetica Neue&amp;quot;, Ubuntu, sans-serif; background-color: rgb(247, 250, 252); pointer-events: auto; line-height: 160%;&quot; class=&quot;Box-root Box-hideIfEmpty Margin-top--8 Margin-left--8&quot;&gt;&lt;font color=&quot;#0000ff&quot;&gt;&lt;a style=&quot;font-weight: var(--sail-font-weight-link); overflow-wrap: break-word; box-sizing: border-box; background-color: transparent; text-decoration-line: none; outline: 0px;&quot; data-testid=&quot;sidebox-topic-link&quot; title=&quot;Getting started&quot; href=&quot;https://support.stripe.com/topics/getting-started&quot; class=&quot;Link&quot;&gt;Getting started&lt;/a&gt;&lt;br&gt;&lt;/font&gt;&lt;/div&gt;&lt;div style=&quot;overflow-wrap: break-word; box-sizing: border-box; outline: 0px; margin-top: var(--sail-spacing-8); margin-left: var(--sail-spacing-8); font-family: -apple-system, BlinkMacSystemFont, &amp;quot;Segoe UI&amp;quot;, Roboto, &amp;quot;Helvetica Neue&amp;quot;, Ubuntu, sans-serif; background-color: rgb(247, 250, 252); pointer-events: auto; line-height: 160%;&quot; class=&quot;Box-root Box-hideIfEmpty Margin-top--8 Margin-left--8&quot;&gt;&lt;a style=&quot;overflow-wrap: break-word; box-sizing: border-box; background-color: transparent; font-weight: var(--sail-font-weight-link); text-decoration-line: none; outline: 0px;&quot; data-testid=&quot;sidebox-topic-link&quot; title=&quot;Invoice&quot; href=&quot;https://support.stripe.com/topics/invoice&quot; class=&quot;Link&quot;&gt;&lt;font color=&quot;#0000ff&quot;&gt;Invoice&lt;/font&gt;&lt;/a&gt;&lt;/div&gt;&lt;div style=&quot;overflow-wrap: break-word; box-sizing: border-box; outline: 0px; margin-top: var(--sail-spacing-8); margin-left: var(--sail-spacing-8); font-family: -apple-system, BlinkMacSystemFont, &amp;quot;Segoe UI&amp;quot;, Roboto, &amp;quot;Helvetica Neue&amp;quot;, Ubuntu, sans-serif; background-color: rgb(247, 250, 252); pointer-events: auto; line-height: 160%;&quot; class=&quot;Box-root Box-hideIfEmpty Margin-top--8 Margin-left--8&quot;&gt;&lt;a style=&quot;overflow-wrap: break-word; box-sizing: border-box; background-color: transparent; font-weight: var(--sail-font-weight-link); text-decoration-line: none; outline: 0px;&quot; data-testid=&quot;sidebox-topic-link&quot; title=&quot;Payments&quot; href=&quot;https://support.stripe.com/topics/payments&quot; class=&quot;Link&quot;&gt;&lt;font color=&quot;#0000ff&quot;&gt;Payments&lt;/font&gt;&lt;/a&gt;&lt;/div&gt;&lt;div style=&quot;overflow-wrap: break-word; box-sizing: border-box; outline: 0px; margin-top: var(--sail-spacing-8); margin-left: var(--sail-spacing-8); font-family: -apple-system, BlinkMacSystemFont, &amp;quot;Segoe UI&amp;quot;, Roboto, &amp;quot;Helvetica Neue&amp;quot;, Ubuntu, sans-serif; background-color: rgb(247, 250, 252); pointer-events: auto; line-height: 160%;&quot; class=&quot;Box-root Box-hideIfEmpty Margin-top--8 Margin-left--8&quot;&gt;&lt;font color=&quot;#0000ff&quot;&gt;&lt;a style=&quot;font-weight: var(--sail-font-weight-link); overflow-wrap: break-word; box-sizing: border-box; background-color: transparent; text-decoration-line: none; outline: 0px;&quot; data-testid=&quot;sidebox-topic-link&quot; title=&quot;Privacy&quot; href=&quot;https://support.stripe.com/topics/privacy&quot; class=&quot;Link&quot;&gt;Privacy&lt;/a&gt;&lt;br&gt;&lt;/font&gt;&lt;/div&gt;&lt;div style=&quot;overflow-wrap: break-word; box-sizing: border-box; outline: 0px; margin-top: var(--sail-spacing-8); margin-left: var(--sail-spacing-8); font-family: -apple-system, BlinkMacSystemFont, &amp;quot;Segoe UI&amp;quot;, Roboto, &amp;quot;Helvetica Neue&amp;quot;, Ubuntu, sans-serif; background-color: rgb(247, 250, 252); pointer-events: auto; line-height: 160%;&quot; class=&quot;Box-root Box-hideIfEmpty Margin-top--8 Margin-left--8&quot;&gt;&lt;a style=&quot;overflow-wrap: break-word; box-sizing: border-box; background-color: transparent; font-weight: var(--sail-font-weight-link); text-decoration-line: none; outline: 0px;&quot; data-testid=&quot;sidebox-topic-link&quot; title=&quot;Refunds&quot; href=&quot;https://support.stripe.com/topics/refunds&quot; class=&quot;Link&quot;&gt;&lt;font color=&quot;#0000ff&quot;&gt;Refunds&lt;/font&gt;&lt;/a&gt;&lt;/div&gt;&lt;div style=&quot;overflow-wrap: break-word; box-sizing: border-box; outline: 0px; margin-top: var(--sail-spacing-8); margin-left: var(--sail-spacing-8); font-family: -apple-system, BlinkMacSystemFont, &amp;quot;Segoe UI&amp;quot;, Roboto, &amp;quot;Helvetica Neue&amp;quot;, Ubuntu, sans-serif; background-color: rgb(247, 250, 252); pointer-events: auto; line-height: 160%;&quot; class=&quot;Box-root Box-hideIfEmpty Margin-top--8 Margin-left--8&quot;&gt;&lt;a style=&quot;overflow-wrap: break-word; box-sizing: border-box; background-color: transparent; font-weight: var(--sail-font-weight-link); text-decoration-line: none; outline: 0px;&quot; data-testid=&quot;sidebox-topic-link&quot; title=&quot;Taxes&quot; href=&quot;https://support.stripe.com/topics/taxes&quot; class=&quot;Link&quot;&gt;&lt;font color=&quot;#0000ff&quot;&gt;Taxes&lt;/font&gt;&lt;/a&gt;&lt;/div&gt;&lt;div style=&quot;overflow-wrap: break-word; box-sizing: border-box; outline: 0px; margin-top: var(--sail-spacing-8); margin-left: var(--sail-spacing-8); font-family: -apple-system, BlinkMacSystemFont, &amp;quot;Segoe UI&amp;quot;, Roboto, &amp;quot;Helvetica Neue&amp;quot;, Ubuntu, sans-serif; background-color: rgb(247, 250, 252); pointer-events: auto; line-height: 160%;&quot; class=&quot;Box-root Box-hideIfEmpty Margin-top--8 Margin-left--8&quot;&gt;&lt;a style=&quot;font-weight: var(--sail-font-weight-link); overflow-wrap: break-word; box-sizing: border-box; background-color: transparent; text-decoration-line: none; outline: 0px;&quot; data-testid=&quot;sidebox-topic-link&quot; title=&quot;Verification&quot; href=&quot;https://support.stripe.com/topics/verification&quot; class=&quot;Link&quot;&gt;&lt;font color=&quot;#0000ff&quot;&gt;Verification&lt;/font&gt;&lt;/a&gt;&lt;br&gt;&lt;/div&gt;&lt;/blockquote&gt;" style="rounded=0;whiteSpace=wrap;html=1;align=left;" parent="1" vertex="1">
          <mxGeometry x="844" y="340" width="207" height="300" as="geometry" />
        </mxCell>
        <mxCell id="1WD8-NuFLle36JU-WN7T-24" value="" style="shape=mxgraph.signs.tech.telephone_3;html=1;pointerEvents=1;fillColor=#000000;strokeColor=none;verticalLabelPosition=bottom;verticalAlign=top;align=center;" parent="1" vertex="1">
          <mxGeometry x="869.69" y="684" width="19.31" height="20" as="geometry" />
        </mxCell>
        <mxCell id="1WD8-NuFLle36JU-WN7T-25" value="&lt;b&gt;&lt;font style=&quot;font-size: 13px;&quot;&gt;Phone - +94 71 234 5678&amp;nbsp;&lt;/font&gt;&lt;/b&gt;" style="text;html=1;strokeColor=none;fillColor=none;align=center;verticalAlign=middle;whiteSpace=wrap;rounded=0;" parent="1" vertex="1">
          <mxGeometry x="872" y="680" width="203" height="30" as="geometry" />
        </mxCell>
        <mxCell id="IjWYiAa8BskkuPgXXYhk-2" value="&lt;font size=&quot;1&quot; face=&quot;Comic Sans MS&quot; style=&quot;&quot;&gt;&lt;b style=&quot;font-size: 22px;&quot;&gt;EduTeach&lt;/b&gt;&lt;/font&gt;" style="text;html=1;strokeColor=none;fillColor=none;align=center;verticalAlign=middle;whiteSpace=wrap;rounded=0;" vertex="1" parent="1">
          <mxGeometry x="106" y="142" width="160" height="30" as="geometry" />
        </mxCell>
      </root>
    </mxGraphModel>
  </diagram>
</mxfile>
